%TF.GenerationSoftware,KiCad,Pcbnew,7.0.7*%
%TF.CreationDate,2024-03-01T22:45:44+09:00*%
%TF.ProjectId,ALTAIR_MDD_V2-backups,414c5441-4952-45f4-9d44-445f56322d62,rev?*%
%TF.SameCoordinates,Original*%
%TF.FileFunction,Soldermask,Bot*%
%TF.FilePolarity,Negative*%
%FSLAX46Y46*%
G04 Gerber Fmt 4.6, Leading zero omitted, Abs format (unit mm)*
G04 Created by KiCad (PCBNEW 7.0.7) date 2024-03-01 22:45:44*
%MOMM*%
%LPD*%
G01*
G04 APERTURE LIST*
G04 Aperture macros list*
%AMRoundRect*
0 Rectangle with rounded corners*
0 $1 Rounding radius*
0 $2 $3 $4 $5 $6 $7 $8 $9 X,Y pos of 4 corners*
0 Add a 4 corners polygon primitive as box body*
4,1,4,$2,$3,$4,$5,$6,$7,$8,$9,$2,$3,0*
0 Add four circle primitives for the rounded corners*
1,1,$1+$1,$2,$3*
1,1,$1+$1,$4,$5*
1,1,$1+$1,$6,$7*
1,1,$1+$1,$8,$9*
0 Add four rect primitives between the rounded corners*
20,1,$1+$1,$2,$3,$4,$5,0*
20,1,$1+$1,$4,$5,$6,$7,0*
20,1,$1+$1,$6,$7,$8,$9,0*
20,1,$1+$1,$8,$9,$2,$3,0*%
G04 Aperture macros list end*
%ADD10C,1.700000*%
%ADD11O,2.000000X2.800000*%
%ADD12RoundRect,0.250000X0.725000X-0.600000X0.725000X0.600000X-0.725000X0.600000X-0.725000X-0.600000X0*%
%ADD13O,1.950000X1.700000*%
%ADD14C,3.200000*%
%ADD15O,2.800000X2.000000*%
%ADD16RoundRect,0.250000X-0.600000X-0.725000X0.600000X-0.725000X0.600000X0.725000X-0.600000X0.725000X0*%
%ADD17O,1.700000X1.950000*%
%ADD18R,1.600000X1.500000*%
%ADD19C,1.600000*%
%ADD20C,3.000000*%
%ADD21R,1.600000X1.600000*%
%ADD22C,4.000000*%
G04 APERTURE END LIST*
D10*
%TO.C,U2*%
X125515000Y-122095000D03*
X117895000Y-124635000D03*
X122975000Y-122095000D03*
X117895000Y-63675000D03*
X115355000Y-124635000D03*
X150915000Y-124635000D03*
X138215000Y-122095000D03*
X117895000Y-61135000D03*
X115355000Y-122095000D03*
X130595000Y-122095000D03*
X128055000Y-122095000D03*
X143295000Y-122095000D03*
X145835000Y-122095000D03*
X153455000Y-63675000D03*
X155995000Y-63675000D03*
X148375000Y-122095000D03*
X122975000Y-63675000D03*
X125515000Y-63675000D03*
X128055000Y-63675000D03*
X138215000Y-63675000D03*
X135675000Y-63675000D03*
X150915000Y-63675000D03*
X125515000Y-61135000D03*
X122975000Y-61135000D03*
X125515000Y-124635000D03*
X128055000Y-124635000D03*
X130595000Y-124635000D03*
X112815000Y-122095000D03*
X145835000Y-124635000D03*
X148375000Y-124635000D03*
X150915000Y-122095000D03*
X138215000Y-61135000D03*
X135675000Y-61135000D03*
X148375000Y-63675000D03*
X143295000Y-63675000D03*
X145835000Y-63675000D03*
X130595000Y-63675000D03*
X135675000Y-124635000D03*
X112815000Y-63675000D03*
X115355000Y-63675000D03*
X140755000Y-63675000D03*
X128055000Y-61135000D03*
X145835000Y-61135000D03*
X143295000Y-61135000D03*
X140755000Y-61135000D03*
X155995000Y-122095000D03*
X153455000Y-122095000D03*
X153455000Y-124635000D03*
X155995000Y-124635000D03*
X150915000Y-61135000D03*
X115355000Y-61135000D03*
X112815000Y-61135000D03*
X133135000Y-63675000D03*
X110275000Y-61135000D03*
X110275000Y-63675000D03*
X110275000Y-124635000D03*
X110275000Y-122095000D03*
X112815000Y-124635000D03*
X138215000Y-124635000D03*
X140755000Y-124635000D03*
X143295000Y-124635000D03*
X133135000Y-124635000D03*
X117895000Y-122095000D03*
X133135000Y-122095000D03*
X135675000Y-122095000D03*
X120435000Y-63675000D03*
X133135000Y-61135000D03*
X148375000Y-61135000D03*
X122975000Y-124635000D03*
X120435000Y-122095000D03*
X120435000Y-124635000D03*
X140755000Y-122095000D03*
X120435000Y-61135000D03*
X130595000Y-61135000D03*
X153455000Y-61135000D03*
X155995000Y-61135000D03*
%TD*%
D11*
%TO.C,J2*%
X199390000Y-92710000D03*
D12*
X192890000Y-96460000D03*
D13*
X192890000Y-93960000D03*
X192890000Y-91460000D03*
X192890000Y-88960000D03*
%TD*%
D14*
%TO.C,REF\u002A\u002A*%
X200000000Y-50000000D03*
%TD*%
D11*
%TO.C,J3*%
X199390000Y-107910000D03*
D12*
X192890000Y-111660000D03*
D13*
X192890000Y-109160000D03*
X192890000Y-106660000D03*
X192890000Y-104160000D03*
%TD*%
D11*
%TO.C,J1*%
X199390000Y-77430000D03*
D12*
X192890000Y-81180000D03*
D13*
X192890000Y-78680000D03*
X192890000Y-76180000D03*
X192890000Y-73680000D03*
%TD*%
D15*
%TO.C,J7*%
X160080000Y-138580000D03*
D16*
X156330000Y-132080000D03*
D17*
X158830000Y-132080000D03*
X161330000Y-132080000D03*
X163830000Y-132080000D03*
%TD*%
D12*
%TO.C,J14*%
X199390000Y-64650000D03*
D13*
X199390000Y-62150000D03*
X199390000Y-59650000D03*
X199390000Y-57150000D03*
%TD*%
D11*
%TO.C,J4*%
X199390000Y-123190000D03*
D12*
X192890000Y-126940000D03*
D13*
X192890000Y-124440000D03*
X192890000Y-121940000D03*
X192890000Y-119440000D03*
%TD*%
D18*
%TO.C,J11*%
X172410000Y-59970000D03*
D19*
X169910000Y-59970000D03*
X167910000Y-59970000D03*
X165410000Y-59970000D03*
D20*
X175480000Y-57260000D03*
X162340000Y-57260000D03*
%TD*%
D14*
%TO.C,REF\u002A\u002A*%
X110000000Y-50000000D03*
%TD*%
D16*
%TO.C,J13*%
X165100000Y-68580000D03*
D17*
X167600000Y-68580000D03*
X170100000Y-68580000D03*
X172600000Y-68580000D03*
%TD*%
D21*
%TO.C,J12*%
X185186000Y-61905500D03*
D19*
X187686000Y-61905500D03*
X187686000Y-59905500D03*
X185186000Y-59905500D03*
D22*
X180436000Y-57045500D03*
X192436000Y-57045500D03*
%TD*%
D15*
%TO.C,J6*%
X142300000Y-138580000D03*
D16*
X138550000Y-132080000D03*
D17*
X141050000Y-132080000D03*
X143550000Y-132080000D03*
X146050000Y-132080000D03*
%TD*%
D15*
%TO.C,J8*%
X177860000Y-138580000D03*
D16*
X174110000Y-132080000D03*
D17*
X176610000Y-132080000D03*
X179110000Y-132080000D03*
X181610000Y-132080000D03*
%TD*%
D14*
%TO.C,REF\u002A\u002A*%
X110000000Y-140000000D03*
%TD*%
D15*
%TO.C,J5*%
X124520000Y-138580000D03*
D16*
X120770000Y-132080000D03*
D17*
X123270000Y-132080000D03*
X125770000Y-132080000D03*
X128270000Y-132080000D03*
%TD*%
M02*
