M48
; DRILL file {KiCad 7.0.7} date Fri Mar  1 22:45:46 2024
; FORMAT={-:-/ absolute / metric / decimal}
; #@! TF.CreationDate,2024-03-01T22:45:46+09:00
; #@! TF.GenerationSoftware,Kicad,Pcbnew,7.0.7
; #@! TF.FileFunction,MixedPlating,1,2
FMAT,2
METRIC
; #@! TA.AperFunction,Plated,PTH,ViaDrill
T1C0.300
; #@! TA.AperFunction,Plated,PTH,ComponentDrill
T2C0.950
; #@! TA.AperFunction,Plated,PTH,ComponentDrill
T3C1.000
; #@! TA.AperFunction,Plated,PTH,ComponentDrill
T4C2.300
; #@! TA.AperFunction,NonPlated,NPTH,ComponentDrill
T5C2.000
; #@! TA.AperFunction,NonPlated,NPTH,ComponentDrill
T6C3.200
%
G90
G05
T1
X121.412Y-120.396
X125.476Y-120.396
X140.716Y-58.42
X143.256Y-58.42
X149.352Y-66.04
X149.352Y-68.58
X149.352Y-69.596
X150.368Y-74.168
X155.448Y-71.628
X155.448Y-73.152
X156.464Y-69.596
X156.489Y-77.191
X158.496Y-75.184
X158.496Y-76.2
X162.56Y-66.742
X162.56Y-69.596
T2
X120.77Y-132.08
X123.27Y-132.08
X125.77Y-132.08
X128.27Y-132.08
X138.55Y-132.08
X141.05Y-132.08
X143.55Y-132.08
X146.05Y-132.08
X156.33Y-132.08
X158.83Y-132.08
X161.33Y-132.08
X163.83Y-132.08
X165.1Y-68.58
X165.41Y-59.97
X167.6Y-68.58
X167.91Y-59.97
X169.91Y-59.97
X170.1Y-68.58
X172.41Y-59.97
X172.6Y-68.58
X174.11Y-132.08
X176.61Y-132.08
X179.11Y-132.08
X181.61Y-132.08
X185.186Y-59.905
X185.186Y-61.905
X187.686Y-59.905
X187.686Y-61.905
X192.89Y-73.68
X192.89Y-76.18
X192.89Y-78.68
X192.89Y-81.18
X192.89Y-88.96
X192.89Y-91.46
X192.89Y-93.96
X192.89Y-96.46
X192.89Y-104.16
X192.89Y-106.66
X192.89Y-109.16
X192.89Y-111.66
X192.89Y-119.44
X192.89Y-121.94
X192.89Y-124.44
X192.89Y-126.94
X199.39Y-57.15
X199.39Y-59.65
X199.39Y-62.15
X199.39Y-64.65
T3
X110.275Y-61.135
X110.275Y-63.675
X110.275Y-122.095
X110.275Y-124.635
X112.815Y-61.135
X112.815Y-63.675
X112.815Y-122.095
X112.815Y-124.635
X115.355Y-61.135
X115.355Y-63.675
X115.355Y-122.095
X115.355Y-124.635
X117.895Y-61.135
X117.895Y-63.675
X117.895Y-122.095
X117.895Y-124.635
X120.435Y-61.135
X120.435Y-63.675
X120.435Y-122.095
X120.435Y-124.635
X122.975Y-61.135
X122.975Y-63.675
X122.975Y-122.095
X122.975Y-124.635
X125.515Y-61.135
X125.515Y-63.675
X125.515Y-122.095
X125.515Y-124.635
X128.055Y-61.135
X128.055Y-63.675
X128.055Y-122.095
X128.055Y-124.635
X130.595Y-61.135
X130.595Y-63.675
X130.595Y-122.095
X130.595Y-124.635
X133.135Y-61.135
X133.135Y-63.675
X133.135Y-122.095
X133.135Y-124.635
X135.675Y-61.135
X135.675Y-63.675
X135.675Y-122.095
X135.675Y-124.635
X138.215Y-61.135
X138.215Y-63.675
X138.215Y-122.095
X138.215Y-124.635
X140.755Y-61.135
X140.755Y-63.675
X140.755Y-122.095
X140.755Y-124.635
X143.295Y-61.135
X143.295Y-63.675
X143.295Y-122.095
X143.295Y-124.635
X145.835Y-61.135
X145.835Y-63.675
X145.835Y-122.095
X145.835Y-124.635
X148.375Y-61.135
X148.375Y-63.675
X148.375Y-122.095
X148.375Y-124.635
X150.915Y-61.135
X150.915Y-63.675
X150.915Y-122.095
X150.915Y-124.635
X153.455Y-61.135
X153.455Y-63.675
X153.455Y-122.095
X153.455Y-124.635
X155.995Y-61.135
X155.995Y-63.675
X155.995Y-122.095
X155.995Y-124.635
T4
X162.34Y-57.26
X175.48Y-57.26
X180.436Y-57.045
X192.436Y-57.045
T6
X110.0Y-50.0
X110.0Y-140.0
X200.0Y-50.0
T5
G00X124.12Y-138.58
M15
G01X124.92Y-138.58
M16
G05
G00X141.9Y-138.58
M15
G01X142.7Y-138.58
M16
G05
G00X159.68Y-138.58
M15
G01X160.48Y-138.58
M16
G05
G00X177.46Y-138.58
M15
G01X178.26Y-138.58
M16
G05
G00X199.39Y-77.83
M15
G01X199.39Y-77.03
M16
G05
G00X199.39Y-93.11
M15
G01X199.39Y-92.31
M16
G05
G00X199.39Y-108.31
M15
G01X199.39Y-107.51
M16
G05
G00X199.39Y-123.59
M15
G01X199.39Y-122.79
M16
G05
T0
M30
